In the 1930's, in the South of State of Bahia, Brazil, an adventurer with no name or history, who had already been shot 7 times, gets involved in the battle for land and cacao plantations. His plan is to take the place of "Colonel" Santana, taking his wife and money. He starts a bloody conflict, in which many simple people and landowners die.

This film was made by Ruy Guerra, one of the pillars of the "Cinema Novo" - a movement in Brazilian Cinema that changed radically the esthetics of Brazilian films. Its major directors were, among many others, Glauber Rocha, Ruy Guerra, Nelson Pereira dos Santos, Luis Sergio Person, to name only a few.

The "Cinema Novo" was influenced by the Italian neorealism and the french "Nouvelle Vague" but achieved its own identity. During the 60s such classics as "Terra em Transe" by Glauber Rocha, "Vidas Secas" by Nelson Pereira dos Santos, "São Paulo" S.A." by Luis Sergio Person etc.. came into being.

"Os Deuses e os Mortos" was released in 1970 when a second and still more radical movement was sweeping the Brazilian cinema, known as "Udigrudi" (brazilian joking translation for underground) that subverted radically the narrative structure of the traditional film. "Os Deuses e os Mortos" was born in this context.

The first films made by Ruy Guerra can be considered examples of the classic "Cinema Novo": "Os Cafajestes" (1962) deeply influenced by the "Nouvelle Vague" but nonetheless revealing a strong personality and "Os Fuzis"(1964) where Ruy Guerra drank from the neorealist source and also one of the mainstays of the "Cinema Novo".

Now "Os Deuses e os Mortos" (1970) with its luscious colors and its surrealist narrative is what we could call a psychedelic film. I don't remember many things of the film. I know that I was deeply impressed and tried to see it again. It describes (as far as I remember) the fights of the landowners in Bahia during the 30s. I recall fights, many fruits, banquets, faces painted in white (am I mistaken?) and colors, many colors. I was completely taken by surprise!

And this film is almost forgotten! No VHS or DVD copies on the market. No one mentions it. "Make a grave for the unknown soldier" sings Jim Morrison, and I say "release a DVD of the forgotten film". I mean of course "Os Deuses e os Mortos".

   General
      Complete name : Os Deuses e os Mortos.avi
      Format : AVI
      Format/Info : Audio Video Interleave
      File size : 1.26 GiB
      Duration : 1h 39mn
      Overall bit rate : 1 819 Kbps
      Writing application : VirtualDubMod 1.5.10.2 (build 2540/release)
      Writing library : VirtualDubMod build 2540/release
   Video #0
      ID : 0
      Format : MPEG-4 Visual
      Format profile : AdvancedSimple@L5
      Format settings, BVOP : Yes
      Format settings, QPel : No
      Format settings, GMC : No warppoints
      Format settings, Matrix : Default (MPEG)
      Muxing mode : Packed bitstream
      Codec ID : XVID
      Codec ID/Hint : XviD
      Duration : 1h 39mn
      Bit rate : 1 682 Kbps
      Width : 624 pixels
      Height : 464 pixels
      Display aspect ratio : 4:3
      Frame rate : 23.976 fps
      Resolution : 24 bits
      Colorimetry : 4:2:0
      Scan type : Progressive
      Bits/(Pixel*Frame) : 0.242
      Stream size : 1.16 GiB (92%)
      Writing library : XviD 1.2.0.dev47 (UTC 2006-11-01)
   Audio #1
      ID : 1
      Format : MPEG Audio
      Format version : Version 1
      Format profile : Layer 3
      Codec ID : 55
      Codec ID/Hint : MP3
      Duration : 1h 39mn
      Bit rate mode : Constant
      Bit rate : 128 Kbps
      Channel(s) : 2 channels
      Sampling rate : 48.0 KHz
      Resolution : 16 bits
      Stream size : 90.7 MiB (7%)
      Alignment : Aligned on interleaves
      Interleave, duration : 42 ms (1.00 video frame)
      Interleave, preload duration : 504 ms
      Writing library : LAME3.97 
      Encoding settings : -m j -V 4 -q 2 -lowpass 17 -b 128

 
http://www.imdb.com/title/tt0065631/

Portuguese audio; no subtitles

My rip of a non-commercial DVD

Ruy Guerra - Os Deuses E Os Mortos (1970)

